<svg xmlns="http://www.w3.org/2000/svg" fill="#1c1c1c" viewBox="0 0 182.63 43.41"><title>bm-logo</title><g id="Layer_2" data-name="Layer 2"><g id="Layer_1-2" data-name="Layer 1"><path class="cls-1" d="M182.49,13a6.84,6.84,0,0,0-5.3-6.08,1,1,0,0,1-.46-.21,9.13,9.13,0,0,0-3.44-2A70.93,70.93,0,0,0,155.16.16a11.94,11.94,0,0,0-8.61,1.66c-6.47,4.31-12.76,8.86-19,13.54,0,.3.15.3.36.18a33.12,33.12,0,0,1,5.46-2,3.77,3.77,0,0,1,4.67,1.91,32.93,32.93,0,0,1,2.21,4.74c.19.43,0,.56-.36.67-1.16.38-2.31.79-3.47,1.17-1.86.61-3.72,1.2-5.58,1.8,1.92.09,3.8-.13,5.7-.06A14.17,14.17,0,0,1,142.23,25a2.56,2.56,0,0,1,1,.82,9,9,0,0,0,3.59,3,4.44,4.44,0,0,0,2.39.51,15.22,15.22,0,0,1-4.65-7.36c-.44-1.32-.83-2.66-1.24-4a18.64,18.64,0,0,0-3.21-6.72c-.41-.5-.36-.72.13-1.05a43.66,43.66,0,0,1,5.9-3.38c2-1,2.15-.88,2.62,1.28A80.74,80.74,0,0,1,150,18.82c.33,4.2.39,8.43,1.1,12.61.15.06.26,0,.28-.15a2.7,2.7,0,0,1,0-1.06c0-2.33-.1-4.65-.14-7a95.93,95.93,0,0,0-1.82-18.13c-.26-1.24-.37-1.33-1.54-.77a56,56,0,0,0-7.16,4.51c-.67.46-1.31,1-2,1.39-.46.29-.46.46-.14.92A31.29,31.29,0,0,1,143,21.61c0,.05,0,.11-.06.22a4.27,4.27,0,0,1-.95-1.64c-.51-1.3-1-2.62-1.46-3.93a9.86,9.86,0,0,0-4.39-5.72c.77.31.91-.42,1.31-.71,2.88-2.13,5.75-4.27,8.79-6.17A14.21,14.21,0,0,1,152,1.48a18.55,18.55,0,0,1,4.69.43,78.52,78.52,0,0,1,13.33,2.6c.36.11.71.26,1.07.39l.52.17a2.55,2.55,0,0,1,1.06.45,2,2,0,0,1-1.24-.3.64.64,0,0,1-.54-.17c-2.57-.6-5.13-1.24-7.74-1.67-3.19-.51-6.4-.86-9.62-1.11a4.86,4.86,0,0,0-1.47.1c-1.08.27-1.48.74-1.46,1.83.12,5.24.54,10.46,1,15.68.18,2.12.5,4.22.68,6.33a1.92,1.92,0,0,0,1.67,1.9c.36.08.72.21,1.07.32l1.21.24a1.09,1.09,0,0,1,.73.14,99.3,99.3,0,0,0,10.19.72c4.28,0,8.56.22,12.79-.68.14,0,.27-.08.39.08a2.23,2.23,0,0,1-.43,2.42,12.48,12.48,0,0,1-5.21,1.84,45.35,45.35,0,0,1-12.37-.07A41.21,41.21,0,0,1,155.83,32a15.1,15.1,0,0,1-3.56-1.38c0,.75,0,1.5-.05,2.26a4.21,4.21,0,0,0,.47,1.68l.1-.46V32.85c.05-.29-.29-.78.15-.83s.12.51.22.78a.47.47,0,0,1,0,.16,1.6,1.6,0,0,1,.12.94c.18.26-.22.75.32.86a31.8,31.8,0,0,0,5.27,1.08l.38-.15c-1.51-.42-3-.87-4.54-1.22-.58-.13-.71-.38-.73-.93,0-1.4-.07-1.39,1.27-1.09,2,.44,3.91.88,5.86,1.29.45.09.59.38.79.7.46.76.58,1.72,1.38,2.26,1,.09,2,.21,3,.26,2.94.14,5.88.31,8.75-.59,1.64-.51,1.65-.48,1.87-2.22,0-.27-.09-.64.28-.76a25.26,25.26,0,0,0,3-1.3,2.75,2.75,0,0,1-.45,2.16c0,.17,0,.26.21.2s.57-.28.46.28a16.26,16.26,0,0,0-.14,2.79c0,2.09-.74,3-2.8,3.37-7,1.4-14.07,1.31-21.14.78-1.66-.13-3.32-.38-5.12-.59a4.58,4.58,0,0,0,2.11,1.39,18.32,18.32,0,0,0,5.24.87,137.47,137.47,0,0,0,18.92-.89,4,4,0,0,0,4-3.7,79.36,79.36,0,0,0,.33-9.25,5.8,5.8,0,0,0-.56-2.73,4.91,4.91,0,0,1-1.47.54,31.55,31.55,0,0,1-5.13.45,127.27,127.27,0,0,1-13.1-.36,40.58,40.58,0,0,1-6.48-.9,1.39,1.39,0,0,1-1.26-1.3c-.36-2.62-.66-5.25-.92-7.89-.35-3.62-.66-7.25-.78-10.89,0-.58.07-.78.71-.57a5.06,5.06,0,0,1,3.48,3.81c.34,1.35.32,1.36-1.09,1.34-.26,0-.53,0-.79,0s-.56.09-.55.52c0,1.87,0,3.73,0,5.6,0,.46.17.6.61.59,1.26,0,2.51,0,3.76,0,.54,0,.7-.14.69-.68,0-1.84,0-3.68-.05-5.51a7,7,0,0,0-4.55-6.63c-.64-.26-1.33-.4-2-.61a1.85,1.85,0,0,1,1.64-.81,21,21,0,0,1,2.1.06,89.57,89.57,0,0,1,9.91,1.56,55,55,0,0,1,8.73,2.39,3.7,3.7,0,0,1,2.29,2.23c.33.9.69,1.79,1,2.69.12.35.26.72.71.55s.13-.51.07-.75c-.3-1.16-.62-2.32-1-3.56,1.63.58,2.17,1.87,2.54,3.26.45,1.7.42,1.7-1.28,1.71h-.26c-.36,0-.45.14-.45.47,0,1.66,0,3.32,0,5,0,.38.18.49.54.48h3.23c.39,0,.51-.14.5-.51C182.57,17,182.72,15,182.49,13Zm-9.6-7.37a.94.94,0,0,1,.93.4C173.51,5.94,173.15,6,172.89,5.63Z"/><path class="cls-1" d="M20.11,21a16.87,16.87,0,0,1-1.42,6.75,15.12,15.12,0,0,1-4.3,5.7,14.33,14.33,0,0,1-6.91,3.08H7.21l-4-.78L0,35.18,4.41,6.72l0-5,5.17-.35L6.45,22.21H7.1A43.77,43.77,0,0,1,14.63,13h.86C18.57,14.42,20.11,17.06,20.11,21Zm-6.5,8.85a13.8,13.8,0,0,0,1.88-7.47C15.49,19.43,15,18,14,18c-.43,0-1.11.48-2,1.45a28.23,28.23,0,0,0-3.2,4.29,55.26,55.26,0,0,0-3.57,6.74l-.11,1.48,3.39.88A5.78,5.78,0,0,0,13.61,29.83Z"/><path class="cls-1" d="M41.84,30.64,41.68,36l-5.16.35,1.56-10.07h-.43q-4.53,7-8.61,10h-.59A7.46,7.46,0,0,1,25,34.74a3.47,3.47,0,0,1-1.29-2.86l.06-.69,2.2-12.48.38-5.23,5.05-.4L28.66,29l-.1,1v.15c0,.69.32,1,1,1q1.5,0,4-3.18a59,59,0,0,0,5.65-9.25l0-.25.21-5,5.11-.35Z"/><path class="cls-1" d="M63.19,14.32l-1.4,4.19-.75.2a6.44,6.44,0,0,0-4.57-2.37,3.3,3.3,0,0,0-2.34.89,2.69,2.69,0,0,0-.94,2A2.29,2.29,0,0,0,54,21a18,18,0,0,0,2.42,1.77,18.49,18.49,0,0,1,3.63,2.84,5,5,0,0,1,1.26,3.53,6.13,6.13,0,0,1-1.26,3.79,8.47,8.47,0,0,1-3.5,2.64,12.75,12.75,0,0,1-5.08,1,18.54,18.54,0,0,1-5.76-1.62L47,30.55l.7-.25a8.32,8.32,0,0,0,2.58,2.27,6,6,0,0,0,2.85.79,3.53,3.53,0,0,0,2.53-.92,2.77,2.77,0,0,0,1-2.09,2.59,2.59,0,0,0-.83-1.9,15.56,15.56,0,0,0-2.61-1.9,20.36,20.36,0,0,1-3.52-2.81,4.68,4.68,0,0,1-1.21-3.36,5.86,5.86,0,0,1,1.34-3.79A9,9,0,0,1,53.4,14a12.91,12.91,0,0,1,5-.94A47.75,47.75,0,0,1,63.19,14.32Z"/><path class="cls-1" d="M98.34,14.69a3.5,3.5,0,0,1,1.26,2.88l0,.64L97.34,30.69,97.07,36l-5.21.35L94.65,20l.06-.54c0-.86-.31-1.29-.92-1.29q-1.56,0-4.17,3.33a62.38,62.38,0,0,0-5.83,9.65L83.52,36l-5.27.35L81.1,20l.05-.54q0-1.29-1-1.29-1.51,0-4.09,3.26a60.31,60.31,0,0,0-5.76,9.37L70.13,36,65,36.32l2.79-17.81.22-5,5-.35L71.47,23.34H72q4.51-7.1,8.66-10.21h.59a7.05,7.05,0,0,1,3.47,1.56A3.5,3.5,0,0,1,86,17.57l0,.64-.86,5.13h.54q4.51-7.1,8.66-10.21h.59A7.09,7.09,0,0,1,98.34,14.69Z"/><path class="cls-1" d="M119.77,30.4q-4,5-8.71,6.07h-.7q-7.26-.49-7.26-8.19a18.53,18.53,0,0,1,1.56-7.77A13.14,13.14,0,0,1,109,15.08a11.9,11.9,0,0,1,6.59-2.14l.59.05c3.26.52,4.89,2.12,4.89,4.78,0,1.94-1,3.71-3.17,5.3s-5.45,3.07-10,4.42a7.49,7.49,0,0,0,.86,3.89,2.63,2.63,0,0,0,2.36,1.24,5.62,5.62,0,0,0,3.37-1.21,10.36,10.36,0,0,0,2.76-3.13l.76,0Zm-9.57-12a11.5,11.5,0,0,0-2.1,5.84q8.45-2.31,8.44-6.11c0-1.25-.77-1.88-2.31-1.88A5,5,0,0,0,110.2,18.39Z"/><path class="cls-1" d="M139.72,30.4q-4,5-8.71,6.07h-.7q-7.26-.49-7.26-8.19a18.53,18.53,0,0,1,1.56-7.77A13.14,13.14,0,0,1,129,15.08a11.92,11.92,0,0,1,6.59-2.14l.59.05c3.26.52,4.9,2.12,4.9,4.78q0,2.91-3.18,5.3t-10,4.42a7.59,7.59,0,0,0,.86,3.89,2.65,2.65,0,0,0,2.37,1.24,5.61,5.61,0,0,0,3.36-1.21,10.39,10.39,0,0,0,2.77-3.13l.75,0Zm-9.57-12a11.59,11.59,0,0,0-2.1,5.84q8.44-2.31,8.45-6.11c0-1.25-.78-1.88-2.32-1.88A5,5,0,0,0,130.15,18.39Z"/></g></g></svg>